M48
M71,LZ
T01C0,4
%
T01
X-028025Y-002050
X-028025Y-003350
X-028025Y-007850
X-028025Y-008950
X-027225Y-002050
X-027225Y-003350
X-027225Y-007850
X-027225Y-008950
X-026425Y-002050
X-026425Y-003350
X-026425Y-007850
X-026425Y-008950
X-025625Y-002050
X-025625Y-003350
X-025625Y-007850
X-025625Y-008950
X-024825Y-002050
X-024825Y-003450
X-024825Y-007750
X-024825Y-008950
X-024025Y-002050
X-024025Y-008950
X-023925Y-003850
X-023925Y-007550
X-023225Y-002050
X-023225Y-008950
X-022900Y-003895
X-022900Y-007305
X-021700Y-003695
X-021700Y-007605
X-020900Y-003695
X-020900Y-007605
X-020100Y-003695
X-020100Y-007605
X-019300Y-003695
X-019300Y-007605
X000700Y001200
X000700Y000100
X000700Y-000800
X000700Y-001700
X000700Y-002600
X000700Y-008600
X000700Y-009600
X001300Y-010800
X001300Y-012300
X001500Y001200
X001500Y000100
X001500Y-000800
X001500Y-001700
X001500Y-002600
X001500Y-008600
X001500Y-009600
X002300Y001200
X002300Y000100
X002300Y-000800
X002300Y-001700
X002300Y-002600
X002300Y-008600
X002300Y-009600
X002800Y-010800
X002800Y-012300
X003400Y-008600
X004200Y-009300
X004200Y-010800
X004200Y-012300
X004900Y-007800
X005900Y-007800
X005900Y-009300
X005900Y-010800
X005900Y-012300
X006200Y001100
X006200Y-000400
X006200Y-001900
X006200Y-003400
X007400Y-007800
X007400Y-009300
X007400Y-010800
X007400Y-012300
X007700Y001100
X007700Y-000400
X007700Y-001900
X007700Y-003400
X008900Y-007800
X008900Y-009300
X008900Y-010800
X008900Y-012300
X009100Y001100
X009100Y-000400
X009100Y-001900
X009100Y-003400
X010400Y001100
X010400Y-000400
X010400Y-001900
X010400Y-003400
X010400Y-007800
X010400Y-009300
X010400Y-010800
X010400Y-012300
T00
M30
